<svg id="Layer_1" data-name="Layer 1" xmlns="http://www.w3.org/2000/svg" viewBox="0 0 512 512"><defs><style>.cls-1{fill:#141f38;}</style></defs><title>woman-3-glyph</title><path class="cls-1" d="M97.19,344.56a74.43,74.43,0,0,1-3.45-26.46L102.4,153.6a153.6,153.6,0,0,1,307.2,0l8.66,164.49a74.43,74.43,0,0,1-3.45,26.46,184.59,184.59,0,0,0-82-44.66V277.8A114.61,114.61,0,0,0,371.2,192V160a44.85,44.85,0,0,0-44.8-44.8H185.6A44.85,44.85,0,0,0,140.8,160v29.11a119,119,0,0,0,38.4,87.79v23A184.59,184.59,0,0,0,97.19,344.56ZM448,492.8A19.26,19.26,0,0,1,428.8,512H83.2A19.26,19.26,0,0,1,64,492.8c0-54.34,27.39-110.34,70.08-143l39.1,47H338.82l39.1-47C420.61,382.46,448,438.46,448,492.8ZM268.8,473.6A12.8,12.8,0,1,0,256,486.4,12.84,12.84,0,0,0,268.8,473.6Zm0-38.4A12.8,12.8,0,1,0,256,448,12.84,12.84,0,0,0,268.8,435.2Zm-83.58-64-29.38-35.26c2-1,4.22-2,6.34-3,1.66-.77,3.39-1.54,5.06-2.24.83-.32,1.66-.7,2.56-1a219,219,0,0,1,35-11.14V265.09l-4.61-3.84a93.45,93.45,0,0,1-33.79-72.13V160a19.26,19.26,0,0,1,19.2-19.2H326.4A19.26,19.26,0,0,1,345.6,160v32A89.2,89.2,0,0,1,312,261.89l-4.8,3.84v52.8a219,219,0,0,1,35,11.14c.9.32,1.73.7,2.56,1,1.66.7,3.39,1.47,5.06,2.24,2.11,1,4.29,2,6.34,3L326.78,371.2Z"/></svg>