<svg id="Layer_1" data-name="Layer 1" xmlns="http://www.w3.org/2000/svg" viewBox="0 0 512 512"><defs><style>.cls-1{fill:#141f38;}</style></defs><title>nurse-glyph</title><path class="cls-1" d="M104.06,49.41a24.89,24.89,0,0,1-1.66-9v-.19a11.41,11.41,0,0,1,.13-1.47,2.3,2.3,0,0,1,.13-.7.58.58,0,0,1,.06-.32c2.37-10.24,19.46-19.46,45.82-26.24C176.26,4.35,214.21,0,256,0s79.74,4.35,107.46,11.52c3.33.83,6.46,1.73,9.47,2.69,1.54.51,3,1,4.42,1.47s2.82.9,4.16,1.41,2.62,1,3.9,1.54c2.11.83,4.1,1.79,6,2.63.9.38,1.66.9,2.5,1.34s1.86,1,2.75,1.47c1.41.83,2.62,1.66,3.78,2.5a30.24,30.24,0,0,1,2.69,2.11c.51.45,1,.9,1.41,1.34a9.87,9.87,0,0,1,.77.83,13.88,13.88,0,0,1,1.34,1.47c.45.64.9,1.28,1.28,1.92a16.53,16.53,0,0,1,.9,1.86,16.62,16.62,0,0,1,.51,1.66.58.58,0,0,1,.06.32,2.3,2.3,0,0,1,.13.7.48.48,0,0,1,.06.26c-.06.06-.06.06-.06.13a.81.81,0,0,1,.06.38v.19a1.41,1.41,0,0,1,.06.51v.19a24.89,24.89,0,0,1-1.66,9L393.09,89.6H118.91ZM256,341.38,320,303V277.12A127.84,127.84,0,0,0,384,166.4V114.18l-.38,1H128.38l-.38-1V166.4a127.84,127.84,0,0,0,64,110.72V303Zm89.92-24.13-.32.19L256,371.2l-89.6-53.76-.32-.19A172.78,172.78,0,0,0,51.2,480a32,32,0,0,0,32,32H428.8a32,32,0,0,0,32-32A172.78,172.78,0,0,0,345.92,317.25Z"/></svg>